<svg width="300" height="255" viewBox="0 0 300 255" fill="none" xmlns="http://www.w3.org/2000/svg">
<path d="M52.2 132C52.2 143.2 53.3333 153.2 55.6 162C58 170.8 61.8667 179.533 67.2 188.2C72.6667 196.733 80.2667 206.333 90 217L71.8 233.6C54.8667 219.067 42 203.733 33.2 187.6C24.5333 171.333 20.2 152.8 20.2 132C20.2 111.2 24.5333 92.7333 33.2 76.6C42 60.3333 54.8667 44.9333 71.8 30.4L90 47C76.4 61.9333 66.6667 75.8 60.8 88.6C55.0667 101.267 52.2 115.733 52.2 132Z" fill="#04C278"/>
<path d="M247.8 132C247.8 115.733 244.867 101.267 239 88.6C233.267 75.8 223.6 61.9333 210 47L228.2 30.4C245.133 44.9333 257.933 60.3333 266.6 76.6C275.4 92.7333 279.8 111.2 279.8 132C279.8 152.8 275.4 171.333 266.6 187.6C257.933 203.733 245.133 219.067 228.2 233.6L210 217C219.733 206.333 227.267 196.733 232.6 188.2C238.067 179.533 241.933 170.8 244.2 162C246.6 153.2 247.8 143.2 247.8 132Z" fill="#04C278"/>
<path d="M107.35 170.75C107.35 166.25 108.95 162.35 112.15 159.05C115.45 155.75 119.4 154.1 124 154.1C128.6 154.1 132.5 155.75 135.7 159.05C139 162.35 140.65 166.25 140.65 170.75C140.65 175.35 139 179.3 135.7 182.6C132.5 185.9 128.6 187.55 124 187.55C119.4 187.55 115.45 185.9 112.15 182.6C108.95 179.3 107.35 175.35 107.35 170.75Z" fill="#04C278"/>
<path d="M179.9 83L200.3 73.4L206.45 92L184.1 96.2L200 112.55L183.65 124.4L172.85 104.3L162.5 124.55L146.15 112.7L161.75 96.05L139.7 92L145.55 73.4L166.1 82.85L162.8 60.35H183.05L179.9 83Z" fill="#04C278"/>
</svg>
